<svg width="48" height="48" viewBox="0 0 48 48" fill="none" xmlns="http://www.w3.org/2000/svg">
<g clip-path="url(#clip0_29_932)">
<path d="M7.99999 18.1467H18.1467V8H32V19.1733H34.6667V8C34.6667 7.29276 34.3857 6.61448 33.8856 6.11438C33.3855 5.61429 32.7072 5.33333 32 5.33333H14.4933L5.33333 14.4933V40C5.33333 40.7072 5.61428 41.3855 6.11438 41.8856C6.61447 42.3857 7.29275 42.6667 7.99999 42.6667H32C32.7072 42.6667 33.3855 42.3857 33.8856 41.8856C34.3857 41.3855 34.6667 40.7072 34.6667 40H7.99999V18.1467ZM7.99999 15.5867L15.5867 8H16V16H7.99999V15.5867Z" fill="#4F4F4F"/>
<path d="M37.76 21.8C37.5049 21.5816 37.1768 21.4674 36.8413 21.4804C36.5057 21.4933 36.1874 21.6325 35.9499 21.8699C35.7125 22.1074 35.5734 22.4257 35.5604 22.7613C35.5474 23.0968 35.6616 23.4249 35.88 23.68L40.2133 28H24C23.6464 28 23.3072 28.1405 23.0572 28.3905C22.8071 28.6406 22.6667 28.9797 22.6667 29.3333C22.6667 29.687 22.8071 30.0261 23.0572 30.2761C23.3072 30.5262 23.6464 30.6667 24 30.6667H40.2533L35.88 35.04C35.7404 35.1595 35.6271 35.3066 35.547 35.472C35.467 35.6375 35.422 35.8176 35.4149 36.0013C35.4078 36.1849 35.4388 36.368 35.5058 36.5391C35.5729 36.7102 35.6745 36.8656 35.8045 36.9955C35.9344 37.1255 36.0898 37.2272 36.2609 37.2942C36.432 37.3612 36.6151 37.3922 36.7987 37.3851C36.9824 37.378 37.1625 37.333 37.328 37.253C37.4934 37.1729 37.6405 37.0596 37.76 36.92L45.3333 29.3333L37.76 21.8Z" fill="#4F4F4F"/>
</g>
<defs>
<clipPath id="clip0_29_932">
<rect width="48" height="48" fill="white"/>
</clipPath>
</defs>
</svg>
