<svg width="48" height="58" viewBox="0 0 48 58" fill="none" xmlns="http://www.w3.org/2000/svg">
<path d="M47.3727 11.8698L36.4636 0.960681C36.048 0.555469 35.4895 0.330137 34.9091 0.333409H13.0909C11.9336 0.333409 10.8237 0.793148 10.0053 1.61149C9.18701 2.42983 8.72727 3.53974 8.72727 4.69704V9.06068H4.36363C3.20633 9.06068 2.09642 9.52042 1.27808 10.3388C0.459738 11.1571 0 12.267 0 13.4243V52.697C0 53.8543 0.459738 54.9642 1.27808 55.7826C2.09642 56.6009 3.20633 57.0606 4.36363 57.0606H34.9091C36.0664 57.0606 37.1763 56.6009 37.9946 55.7826C38.813 54.9642 39.2727 53.8543 39.2727 52.697V48.3334H43.6363C44.7936 48.3334 45.9035 47.8736 46.7219 47.0553C47.5402 46.237 48 45.1271 48 43.9697V13.4243C48.0032 12.8438 47.7779 12.2854 47.3727 11.8698ZM26.1818 46.1516H13.0909C12.5122 46.1516 11.9573 45.9217 11.5481 45.5125C11.139 45.1034 10.9091 44.5484 10.9091 43.9697C10.9091 43.3911 11.139 42.8361 11.5481 42.427C11.9573 42.0178 12.5122 41.7879 13.0909 41.7879H26.1818C26.7605 41.7879 27.3154 42.0178 27.7246 42.427C28.1337 42.8361 28.3636 43.3911 28.3636 43.9697C28.3636 44.5484 28.1337 45.1034 27.7246 45.5125C27.3154 45.9217 26.7605 46.1516 26.1818 46.1516ZM26.1818 37.4243H13.0909C12.5122 37.4243 11.9573 37.1944 11.5481 36.7853C11.139 36.3761 10.9091 35.8211 10.9091 35.2425C10.9091 34.6638 11.139 34.1089 11.5481 33.6997C11.9573 33.2905 12.5122 33.0607 13.0909 33.0607H26.1818C26.7605 33.0607 27.3154 33.2905 27.7246 33.6997C28.1337 34.1089 28.3636 34.6638 28.3636 35.2425C28.3636 35.8211 28.1337 36.3761 27.7246 36.7853C27.3154 37.1944 26.7605 37.4243 26.1818 37.4243ZM43.6363 43.9697H39.2727V22.1516C39.276 21.5711 39.0506 21.0127 38.6454 20.597L27.7363 9.68795C27.3207 9.28274 26.7623 9.0574 26.1818 9.06068H13.0909V4.69704H34.0091L43.6363 14.3243V43.9697Z" fill="white"/>
</svg>
