<svg width="53" height="59" viewBox="0 0 53 59" fill="none" xmlns="http://www.w3.org/2000/svg">
<path d="M5.83333 54.0001C4.36667 54.0001 3.11067 53.4783 2.06533 52.4347C1.02178 51.3894 0.5 50.1334 0.5 48.6667V11.3334C0.5 9.86675 1.02178 8.61075 2.06533 7.56541C3.11067 6.52186 4.36667 6.00008 5.83333 6.00008H16.9667C17.4556 4.44453 18.4111 3.1663 19.8333 2.16541C21.2556 1.1663 22.8111 0.666748 24.5 0.666748C26.2778 0.666748 27.8671 1.1663 29.268 2.16541C30.6671 3.1663 31.6111 4.44453 32.1 6.00008H43.1667C44.6333 6.00008 45.8893 6.52186 46.9347 7.56541C47.9782 8.61075 48.5 9.86675 48.5 11.3334V24.6667H43.1667V11.3334H37.8333V14.0001C37.8333 15.4667 37.3116 16.7219 36.268 17.7654C35.2227 18.8107 33.9667 19.3334 32.5 19.3334H16.5C15.0333 19.3334 13.7782 18.8107 12.7347 17.7654C11.6893 16.7219 11.1667 15.4667 11.1667 14.0001V11.3334H5.83333V48.6667H19.1667V54.0001H5.83333ZM48.2333 57.4667L42.9 52.1334C41.9667 52.6667 40.9667 53.1112 39.9 53.4667C38.8333 53.8223 37.7 54.0001 36.5 54.0001C33.1667 54.0001 30.3329 52.8339 27.9987 50.5014C25.6662 48.1672 24.5 45.3334 24.5 42.0001C24.5 38.6667 25.6662 35.833 27.9987 33.4987C30.3329 31.1663 33.1667 30.0001 36.5 30.0001C39.8333 30.0001 42.6671 31.1663 45.0013 33.4987C47.3338 35.833 48.5 38.6667 48.5 42.0001C48.5 43.2001 48.3222 44.3334 47.9667 45.4001C47.6111 46.4667 47.1667 47.4667 46.6333 48.4001L51.9667 53.7334C52.4556 54.2223 52.7 54.8445 52.7 55.6001C52.7 56.3556 52.4556 56.9779 51.9667 57.4667C51.4778 57.9556 50.8556 58.2001 50.1 58.2001C49.3444 58.2001 48.7222 57.9556 48.2333 57.4667ZM36.5 48.6667C38.3667 48.6667 39.9444 48.0223 41.2333 46.7334C42.5222 45.4445 43.1667 43.8667 43.1667 42.0001C43.1667 40.1334 42.5222 38.5556 41.2333 37.2668C39.9444 35.9779 38.3667 35.3334 36.5 35.3334C34.6333 35.3334 33.0556 35.9779 31.7667 37.2668C30.4778 38.5556 29.8333 40.1334 29.8333 42.0001C29.8333 43.8667 30.4778 45.4445 31.7667 46.7334C33.0556 48.0223 34.6333 48.6667 36.5 48.6667ZM24.5 11.3334C25.2556 11.3334 25.8893 11.0774 26.4013 10.5654C26.9116 10.0552 27.1667 9.4223 27.1667 8.66675C27.1667 7.91119 26.9116 7.27741 26.4013 6.76541C25.8893 6.25519 25.2556 6.00008 24.5 6.00008C23.7444 6.00008 23.1116 6.25519 22.6013 6.76541C22.0893 7.27741 21.8333 7.91119 21.8333 8.66675C21.8333 9.4223 22.0893 10.0552 22.6013 10.5654C23.1116 11.0774 23.7444 11.3334 24.5 11.3334Z" fill="#2D9CDB"/>
</svg>
